<svg width="156" height="36" viewBox="0 0 156 36" fill="none" xmlns="http://www.w3.org/2000/svg">
<rect width="156" height="35.2" fill="white"/>
<rect x="48.88" y="6.24023" width="8.32" height="8.32" rx="4.16" fill="#0078B5"/>
<path d="M50.9025 9.62283H51.8108V12.5457H50.9025V9.62283ZM51.357 8.16992C51.6474 8.16992 51.8832 8.40569 51.8832 8.69682C51.8832 8.98795 51.6474 9.22372 51.357 9.22372C51.0659 9.22372 50.8301 8.98795 50.8301 8.69682C50.8294 8.40638 51.0652 8.16992 51.357 8.16992Z" fill="white"/>
<path d="M52.3806 9.62293H53.252V10.022H53.2643C53.3852 9.79241 53.6811 9.5498 54.124 9.5498C55.0438 9.5498 55.214 10.1553 55.214 10.9419V12.5458H54.3058V11.125C54.3058 10.7854 54.2996 10.3501 53.8335 10.3501C53.3606 10.3501 53.2882 10.7191 53.2882 11.1004V12.5465H52.3806V9.62293Z" fill="white"/>
<rect x="61.3601" y="6.24023" width="8.32" height="8.32" rx="4.16" fill="#FF0000"/>
<path d="M68.1677 9.06132C68.1045 8.8217 67.9173 8.63367 67.6793 8.5696C67.2484 8.45312 65.5211 8.45312 65.5211 8.45312C65.5211 8.45312 63.7931 8.45312 63.3629 8.5696C63.125 8.63367 62.9378 8.8217 62.8745 9.06132C62.7581 9.49479 62.7581 10.4 62.7581 10.4C62.7581 10.4 62.7581 11.3052 62.8737 11.7387C62.9369 11.9783 63.1241 12.1663 63.3621 12.2304C63.7931 12.3469 65.5203 12.3469 65.5203 12.3469C65.5203 12.3469 67.2484 12.3469 67.6785 12.2304C67.9165 12.1663 68.1037 11.9783 68.1669 11.7387C68.2825 11.3052 68.2825 10.4 68.2825 10.4C68.2825 10.4 68.2825 9.49479 68.1677 9.06132ZM64.9554 11.2212V9.57882L66.3989 10.4L64.9554 11.2212Z" fill="white"/>
<g clip-path="url(#clip0_1928_3723)">
<rect x="73.8401" y="6.24023" width="8.32" height="8.32" rx="4.16" fill="#1877F2"/>
<path d="M79.6195 11.6027L79.8039 10.4002H78.6502V9.61991C78.6502 9.29093 78.8114 8.97023 79.3281 8.97023H79.8527V7.94648C79.8527 7.94648 79.3767 7.86523 78.9215 7.86523C77.9713 7.86523 77.3502 8.44113 77.3502 9.48373V10.4002H76.2939V11.6027H77.3502V14.5097C77.562 14.5429 77.779 14.5602 78.0002 14.5602C78.2214 14.5602 78.4384 14.5429 78.6502 14.5097V11.6027H79.6195Z" fill="white"/>
</g>
<rect x="86.3201" y="6.24023" width="8.32" height="8.32" rx="4.16" fill="url(#paint0_linear_1928_3723)"/>
<path d="M90.4802 8.07223C91.2382 8.07223 91.328 8.07472 91.6275 8.08887C91.9046 8.10135 92.0552 8.14794 92.155 8.18704C92.2873 8.23863 92.3822 8.30019 92.4812 8.3992C92.5802 8.49821 92.6418 8.59306 92.6933 8.72535C92.7324 8.82519 92.7782 8.97578 92.7915 9.25283C92.8048 9.55235 92.8082 9.64221 92.8082 10.4002C92.8082 11.1581 92.8057 11.248 92.7915 11.5475C92.779 11.8245 92.7324 11.9751 92.6933 12.075C92.6418 12.2073 92.5802 12.3021 92.4812 12.4011C92.3822 12.5001 92.2873 12.5617 92.155 12.6133C92.0552 12.6524 91.9046 12.6981 91.6275 12.7115C91.328 12.7248 91.2382 12.7281 90.4802 12.7281C89.7223 12.7281 89.6324 12.7256 89.3329 12.7115C89.0558 12.699 88.9052 12.6524 88.8054 12.6133C88.6731 12.5617 88.5783 12.5001 88.4793 12.4011C88.3803 12.3021 88.3187 12.2073 88.2671 12.075C88.228 11.9751 88.1822 11.8245 88.1689 11.5475C88.1556 11.248 88.1523 11.1581 88.1523 10.4002C88.1523 9.64221 88.1548 9.55235 88.1689 9.25283C88.1814 8.97578 88.228 8.82519 88.2671 8.72535C88.3187 8.59306 88.3803 8.49821 88.4793 8.3992C88.5783 8.30019 88.6731 8.23863 88.8054 8.18704C88.9052 8.14794 89.0558 8.10218 89.3329 8.08887C89.6324 8.07472 89.7223 8.07223 90.4802 8.07223ZM90.4802 7.56055C89.709 7.56055 89.6124 7.56387 89.3096 7.57802C89.0076 7.59216 88.8012 7.63959 88.6199 7.71031C88.4335 7.78186 88.2746 7.8792 88.1173 8.03728C87.9593 8.19536 87.8627 8.35344 87.7895 8.54064C87.7196 8.72119 87.6714 8.92752 87.6572 9.23037C87.6431 9.53322 87.6398 9.62973 87.6398 10.401C87.6398 11.1723 87.6431 11.2688 87.6572 11.5716C87.6714 11.8736 87.7188 12.08 87.7895 12.2613C87.8619 12.4469 87.9593 12.6058 88.1173 12.763C88.2754 12.9211 88.4335 13.0176 88.6207 13.0909C88.8012 13.1607 89.0076 13.209 89.3104 13.2231C89.6133 13.2373 89.7098 13.2406 90.4811 13.2406C91.2523 13.2406 91.3488 13.2373 91.6517 13.2231C91.9537 13.209 92.16 13.1616 92.3414 13.0909C92.5269 13.0185 92.6859 12.9211 92.8431 12.763C93.0012 12.605 93.0977 12.4469 93.1709 12.2597C93.2408 12.0791 93.2891 11.8728 93.3032 11.57C93.3173 11.2671 93.3207 11.1706 93.3207 10.3993C93.3207 9.62807 93.3173 9.53156 93.3032 9.22871C93.2891 8.92669 93.2416 8.72035 93.1709 8.53898C93.0985 8.35344 93.0012 8.19453 92.8431 8.03728C92.685 7.8792 92.5269 7.78269 92.3397 7.70947C92.1592 7.63959 91.9529 7.59133 91.65 7.57719C91.348 7.56387 91.2515 7.56055 90.4802 7.56055Z" fill="white"/>
<path d="M90.4803 8.94141C89.675 8.94141 89.0219 9.59453 89.0219 10.3999C89.0219 11.2053 89.675 11.8584 90.4803 11.8584C91.2857 11.8584 91.9388 11.2053 91.9388 10.3999C91.9388 9.59453 91.2857 8.94141 90.4803 8.94141ZM90.4803 11.3467C89.9579 11.3467 89.5335 10.9232 89.5335 10.3999C89.5335 9.87657 89.9579 9.45309 90.4803 9.45309C91.0028 9.45309 91.4272 9.87657 91.4272 10.3999C91.4272 10.9232 91.0028 11.3467 90.4803 11.3467Z" fill="white"/>
<path d="M91.9961 9.22521C92.1845 9.22521 92.3373 9.07248 92.3373 8.88409C92.3373 8.69569 92.1845 8.54297 91.9961 8.54297C91.8078 8.54297 91.655 8.69569 91.655 8.88409C91.655 9.07248 91.8078 9.22521 91.9961 9.22521Z" fill="white"/>
<rect x="98.8002" y="6.24023" width="8.32" height="8.32" rx="4.16" fill="#24ACFF"/>
<path d="M101.995 12.5138C103.957 12.5138 105.031 10.8881 105.031 9.47784C105.031 9.43208 105.031 9.38549 105.028 9.33973C105.237 9.1883 105.417 9.00193 105.56 8.78728C105.366 8.87381 105.159 8.93038 104.948 8.95534C105.171 8.82222 105.337 8.61256 105.417 8.36545C105.208 8.48942 104.979 8.57761 104.74 8.62421C104.336 8.19489 103.66 8.17409 103.231 8.57761C102.954 8.83803 102.836 9.22657 102.922 9.59681C102.064 9.55355 101.265 9.14837 100.723 8.48193C100.44 8.96949 100.584 9.59265 101.053 9.90632C100.884 9.90133 100.717 9.85557 100.569 9.7732C100.569 9.77736 100.569 9.78235 100.569 9.78651C100.569 10.294 100.927 10.7317 101.425 10.8323C101.268 10.8748 101.103 10.8814 100.944 10.8506C101.083 11.2849 101.484 11.5828 101.94 11.5919C101.563 11.889 101.096 12.0504 100.616 12.0495C100.531 12.0495 100.446 12.0446 100.362 12.0337C100.848 12.3474 101.416 12.5138 101.995 12.513" fill="white"/>
<path d="M63.071 21.7207L62.5092 19.8771H62.8069L63.2054 21.2886H63.2246L63.6183 19.8771H63.9208L64.3097 21.2838H64.3289L64.7274 19.8771H65.025L64.4633 21.7207H64.1848L63.7815 20.3044H63.7527L63.3494 21.7207H63.071ZM65.8172 21.7207L65.2555 19.8771H65.5532L65.9516 21.2886H65.9709L66.3645 19.8771H66.667L67.0559 21.2838H67.0751L67.4736 19.8771H67.7713L67.2095 21.7207H66.9311L66.5278 20.3044H66.499L66.0957 21.7207H65.8172ZM68.5635 21.7207L68.0017 19.8771H68.2994L68.6979 21.2886H68.7171L69.1108 19.8771H69.4133L69.8022 21.2838H69.8214L70.2199 19.8771H70.5175L69.9558 21.7207H69.6773L69.274 20.3044H69.2452L68.8419 21.7207H68.5635ZM70.8476 21.7399C70.7884 21.7399 70.7376 21.7187 70.6952 21.6763C70.6528 21.6339 70.6316 21.5831 70.6316 21.5239C70.6316 21.4646 70.6528 21.4138 70.6952 21.3714C70.7376 21.329 70.7884 21.3078 70.8476 21.3078C70.9068 21.3078 70.9576 21.329 71 21.3714C71.0425 21.4138 71.0637 21.4646 71.0637 21.5239C71.0637 21.5631 71.0537 21.5991 71.0336 21.6319C71.0144 21.6647 70.9884 21.6911 70.9556 21.7111C70.9236 21.7303 70.8876 21.7399 70.8476 21.7399ZM72.321 21.7591C72.1481 21.7591 71.9993 21.7183 71.8744 21.6367C71.7496 21.5551 71.6536 21.4426 71.5864 21.2994C71.5192 21.1562 71.4856 20.9925 71.4856 20.8085C71.4856 20.6212 71.52 20.456 71.5888 20.3128C71.6584 20.1687 71.7552 20.0563 71.8792 19.9755C72.0041 19.8939 72.1497 19.8531 72.3162 19.8531C72.4458 19.8531 72.5626 19.8771 72.6666 19.9251C72.7707 19.9731 72.8559 20.0403 72.9223 20.1267C72.9887 20.2131 73.0299 20.314 73.0459 20.4292H72.7627C72.7411 20.3452 72.693 20.2708 72.6186 20.2059C72.545 20.1403 72.4458 20.1075 72.321 20.1075C72.2105 20.1075 72.1137 20.1363 72.0305 20.1939C71.9481 20.2508 71.8836 20.3312 71.8372 20.4352C71.7916 20.5384 71.7688 20.6597 71.7688 20.7989C71.7688 20.9413 71.7912 21.0653 71.836 21.171C71.8816 21.2766 71.9457 21.3586 72.0281 21.417C72.1113 21.4754 72.2089 21.5047 72.321 21.5047C72.3946 21.5047 72.4614 21.4918 72.5214 21.4662C72.5814 21.4406 72.6322 21.4038 72.6738 21.3558C72.7154 21.3078 72.7451 21.2502 72.7627 21.183H73.0459C73.0299 21.2918 72.9903 21.3898 72.9271 21.477C72.8647 21.5635 72.7819 21.6323 72.6786 21.6835C72.5762 21.7339 72.457 21.7591 72.321 21.7591ZM74.2042 22.4505C74.0674 22.4505 73.9497 22.4329 73.8513 22.3977C73.7529 22.3633 73.6709 22.3176 73.6053 22.2608C73.5404 22.2048 73.4888 22.1448 73.4504 22.0808L73.6761 21.9224C73.7017 21.956 73.7341 21.9944 73.7733 22.0376C73.8125 22.0816 73.8661 22.1196 73.9341 22.1516C74.003 22.1844 74.093 22.2008 74.2042 22.2008C74.353 22.2008 74.4759 22.1648 74.5727 22.0928C74.6695 22.0208 74.7179 21.9079 74.7179 21.7543V21.3798H74.6939C74.6731 21.4134 74.6435 21.455 74.6051 21.5047C74.5675 21.5535 74.5131 21.5971 74.4419 21.6355C74.3714 21.6731 74.2762 21.6919 74.1562 21.6919C74.0074 21.6919 73.8737 21.6567 73.7553 21.5863C73.6377 21.5159 73.5444 21.4134 73.4756 21.279C73.4076 21.1446 73.3736 20.9813 73.3736 20.7893C73.3736 20.6004 73.4068 20.436 73.4732 20.296C73.5396 20.1551 73.6321 20.0463 73.7505 19.9695C73.8689 19.8919 74.0058 19.8531 74.161 19.8531C74.281 19.8531 74.3762 19.8731 74.4467 19.9131C74.5179 19.9523 74.5723 19.9971 74.6099 20.0475C74.6483 20.0971 74.6779 20.1379 74.6987 20.1699H74.7275V19.8771H75.0012V21.7735C75.0012 21.932 74.9652 22.0608 74.8932 22.16C74.8219 22.26 74.7259 22.3332 74.6051 22.3797C74.4851 22.4269 74.3514 22.4505 74.2042 22.4505ZM74.1946 21.4374C74.3082 21.4374 74.4042 21.4114 74.4827 21.3594C74.5611 21.3074 74.6207 21.2326 74.6615 21.135C74.7023 21.0373 74.7227 20.9205 74.7227 20.7845C74.7227 20.6517 74.7027 20.5344 74.6627 20.4328C74.6227 20.3312 74.5635 20.2516 74.4851 20.1939C74.4066 20.1363 74.3098 20.1075 74.1946 20.1075C74.0746 20.1075 73.9745 20.1379 73.8945 20.1987C73.8153 20.2596 73.7557 20.3412 73.7157 20.4436C73.6765 20.546 73.6569 20.6597 73.6569 20.7845C73.6569 20.9125 73.6769 21.0257 73.7169 21.1242C73.7577 21.2218 73.8177 21.2986 73.8969 21.3546C73.9769 21.4098 74.0762 21.4374 74.1946 21.4374ZM75.5197 21.7207V19.8771H75.803V21.7207H75.5197ZM75.6637 19.5698C75.6085 19.5698 75.5609 19.551 75.5209 19.5134C75.4817 19.4758 75.4621 19.4306 75.4621 19.3777C75.4621 19.3249 75.4817 19.2797 75.5209 19.2421C75.5609 19.2045 75.6085 19.1857 75.6637 19.1857C75.719 19.1857 75.7662 19.2045 75.8054 19.2421C75.8454 19.2797 75.8654 19.3249 75.8654 19.3777C75.8654 19.4306 75.8454 19.4758 75.8054 19.5134C75.7662 19.551 75.719 19.5698 75.6637 19.5698ZM76.6051 20.6116V21.7207H76.3218V19.8771H76.5955V20.1651H76.6195C76.6627 20.0715 76.7283 19.9963 76.8163 19.9395C76.9043 19.8819 77.018 19.8531 77.1572 19.8531C77.282 19.8531 77.3913 19.8787 77.4849 19.9299C77.5785 19.9803 77.6513 20.0571 77.7033 20.1603C77.7553 20.2628 77.7813 20.3924 77.7813 20.5492V21.7207H77.4981V20.5684C77.4981 20.4236 77.4605 20.3108 77.3853 20.23C77.31 20.1483 77.2068 20.1075 77.0756 20.1075C76.9852 20.1075 76.9043 20.1271 76.8331 20.1663C76.7627 20.2055 76.7071 20.2628 76.6663 20.338C76.6255 20.4132 76.6051 20.5044 76.6051 20.6116ZM79.12 19.8771V20.1171H78.1261V19.8771H79.12ZM78.4238 21.7207V19.6226C78.4238 19.517 78.4486 19.429 78.4982 19.3585C78.5478 19.2881 78.6122 19.2353 78.6915 19.2001C78.7707 19.1649 78.8543 19.1473 78.9423 19.1473C79.0119 19.1473 79.0688 19.1529 79.1128 19.1641C79.1568 19.1753 79.1896 19.1857 79.2112 19.1953L79.1296 19.4402C79.1152 19.4354 79.0952 19.4294 79.0696 19.4222C79.0447 19.415 79.0119 19.4114 78.9711 19.4114C78.8775 19.4114 78.8099 19.435 78.7683 19.4822C78.7275 19.5294 78.7071 19.5986 78.7071 19.6898V21.7207H78.4238ZM79.517 21.7207V19.8771H79.8002V21.7207H79.517ZM79.661 19.5698C79.6058 19.5698 79.5582 19.551 79.5182 19.5134C79.4789 19.4758 79.4593 19.4306 79.4593 19.3777C79.4593 19.3249 79.4789 19.2797 79.5182 19.2421C79.5582 19.2045 79.6058 19.1857 79.661 19.1857C79.7162 19.1857 79.7634 19.2045 79.8026 19.2421C79.8426 19.2797 79.8626 19.3249 79.8626 19.3777C79.8626 19.4306 79.8426 19.4758 79.8026 19.5134C79.7634 19.551 79.7162 19.5698 79.661 19.5698ZM80.6023 20.6116V21.7207H80.319V19.8771H80.5927V20.1651H80.6167C80.6599 20.0715 80.7255 19.9963 80.8136 19.9395C80.9016 19.8819 81.0152 19.8531 81.1544 19.8531C81.2793 19.8531 81.3885 19.8787 81.4821 19.9299C81.5757 19.9803 81.6486 20.0571 81.7006 20.1603C81.7526 20.2628 81.7786 20.3924 81.7786 20.5492V21.7207H81.4953V20.5684C81.4953 20.4236 81.4577 20.3108 81.3825 20.23C81.3073 20.1483 81.2041 20.1075 81.0728 20.1075C80.9824 20.1075 80.9016 20.1271 80.8304 20.1663C80.7599 20.2055 80.7043 20.2628 80.6635 20.338C80.6227 20.4132 80.6023 20.5044 80.6023 20.6116ZM82.2962 21.7207V19.8771H82.5795V21.7207H82.2962ZM82.4402 19.5698C82.385 19.5698 82.3374 19.551 82.2974 19.5134C82.2582 19.4758 82.2386 19.4306 82.2386 19.3777C82.2386 19.3249 82.2582 19.2797 82.2974 19.2421C82.3374 19.2045 82.385 19.1857 82.4402 19.1857C82.4955 19.1857 82.5427 19.2045 82.5819 19.2421C82.6219 19.2797 82.6419 19.3249 82.6419 19.3777C82.6419 19.4306 82.6219 19.4758 82.5819 19.5134C82.5427 19.551 82.4955 19.5698 82.4402 19.5698ZM83.9001 19.8771V20.1171H82.9447V19.8771H83.9001ZM83.2231 19.4354H83.5064V21.1926C83.5064 21.2726 83.518 21.3326 83.5412 21.3726C83.5652 21.4118 83.5956 21.4382 83.6324 21.4518C83.67 21.4646 83.7096 21.471 83.7513 21.471C83.7825 21.471 83.8081 21.4694 83.8281 21.4662C83.8481 21.4622 83.8641 21.459 83.8761 21.4566L83.9337 21.7111C83.9145 21.7183 83.8877 21.7255 83.8533 21.7327C83.8189 21.7407 83.7753 21.7447 83.7225 21.7447C83.6424 21.7447 83.564 21.7275 83.4872 21.6931C83.4112 21.6587 83.348 21.6063 83.2976 21.5359C83.2479 21.4654 83.2231 21.3766 83.2231 21.2694V19.4354ZM84.5086 22.4121C84.4606 22.4121 84.4178 22.4081 84.3802 22.4001C84.3426 22.3929 84.3166 22.3857 84.3022 22.3785L84.3742 22.1288C84.443 22.1464 84.5038 22.1528 84.5566 22.148C84.6095 22.1432 84.6563 22.1196 84.6971 22.0772C84.7387 22.0356 84.7767 21.968 84.8111 21.8743L84.8639 21.7303L84.1822 19.8771H84.4894L84.9984 21.3462H85.0176L85.5265 19.8771H85.8338L85.0512 21.9896C85.016 22.0848 84.9723 22.1636 84.9203 22.226C84.8683 22.2892 84.8079 22.336 84.7391 22.3665C84.6711 22.3969 84.5943 22.4121 84.5086 22.4121ZM86.2986 21.7399C86.2393 21.7399 86.1885 21.7187 86.1461 21.6763C86.1037 21.6339 86.0825 21.5831 86.0825 21.5239C86.0825 21.4646 86.1037 21.4138 86.1461 21.3714C86.1885 21.329 86.2393 21.3078 86.2986 21.3078C86.3578 21.3078 86.4086 21.329 86.451 21.3714C86.4934 21.4138 86.5146 21.4646 86.5146 21.5239C86.5146 21.5631 86.5046 21.5991 86.4846 21.6319C86.4654 21.6647 86.4394 21.6911 86.4066 21.7111C86.3746 21.7303 86.3386 21.7399 86.2986 21.7399ZM87.7719 21.7591C87.5991 21.7591 87.4502 21.7183 87.3254 21.6367C87.2006 21.5551 87.1046 21.4426 87.0373 21.2994C86.9701 21.1562 86.9365 20.9925 86.9365 20.8085C86.9365 20.6212 86.9709 20.456 87.0397 20.3128C87.1094 20.1687 87.2062 20.0563 87.3302 19.9755C87.455 19.8939 87.6007 19.8531 87.7671 19.8531C87.8967 19.8531 88.0136 19.8771 88.1176 19.9251C88.2216 19.9731 88.3068 20.0403 88.3733 20.1267C88.4397 20.2131 88.4809 20.314 88.4969 20.4292H88.2136C88.192 20.3452 88.144 20.2708 88.0696 20.2059C87.996 20.1403 87.8967 20.1075 87.7719 20.1075C87.6615 20.1075 87.5647 20.1363 87.4814 20.1939C87.399 20.2508 87.3346 20.3312 87.2882 20.4352C87.2426 20.5384 87.2198 20.6597 87.2198 20.7989C87.2198 20.9413 87.2422 21.0653 87.287 21.171C87.3326 21.2766 87.3966 21.3586 87.479 21.417C87.5623 21.4754 87.6599 21.5047 87.7719 21.5047C87.8455 21.5047 87.9123 21.4918 87.9724 21.4662C88.0324 21.4406 88.0832 21.4038 88.1248 21.3558C88.1664 21.3078 88.196 21.2502 88.2136 21.183H88.4969C88.4809 21.2918 88.4413 21.3898 88.3781 21.477C88.3156 21.5635 88.2328 21.6323 88.1296 21.6835C88.0272 21.7339 87.9079 21.7591 87.7719 21.7591ZM89.66 21.7591C89.4935 21.7591 89.3475 21.7195 89.2219 21.6403C89.097 21.5611 88.9994 21.4502 88.929 21.3078C88.8594 21.1654 88.8246 20.9989 88.8246 20.8085C88.8246 20.6164 88.8594 20.4488 88.929 20.3056C88.9994 20.1623 89.097 20.0511 89.2219 19.9719C89.3475 19.8927 89.4935 19.8531 89.66 19.8531C89.8264 19.8531 89.972 19.8927 90.0969 19.9719C90.2225 20.0511 90.3201 20.1623 90.3897 20.3056C90.4601 20.4488 90.4954 20.6164 90.4954 20.8085C90.4954 20.9989 90.4601 21.1654 90.3897 21.3078C90.3201 21.4502 90.2225 21.5611 90.0969 21.6403C89.972 21.7195 89.8264 21.7591 89.66 21.7591ZM89.66 21.5047C89.7864 21.5047 89.8904 21.4722 89.972 21.4074C90.0536 21.3426 90.1141 21.2574 90.1533 21.1518C90.1925 21.0461 90.2121 20.9317 90.2121 20.8085C90.2121 20.6853 90.1925 20.5704 90.1533 20.464C90.1141 20.3576 90.0536 20.2716 89.972 20.2059C89.8904 20.1403 89.7864 20.1075 89.66 20.1075C89.5335 20.1075 89.4295 20.1403 89.3479 20.2059C89.2663 20.2716 89.2058 20.3576 89.1666 20.464C89.1274 20.5704 89.1078 20.6853 89.1078 20.8085C89.1078 20.9317 89.1274 21.0461 89.1666 21.1518C89.2058 21.2574 89.2663 21.3426 89.3479 21.4074C89.4295 21.4722 89.5335 21.5047 89.66 21.5047ZM90.9278 21.7207V19.8771H91.2014V20.1651H91.2254C91.2638 20.0667 91.3259 19.9903 91.4115 19.9359C91.4971 19.8807 91.5999 19.8531 91.7199 19.8531C91.8416 19.8531 91.9428 19.8807 92.0236 19.9359C92.1052 19.9903 92.1689 20.0667 92.2145 20.1651H92.2337C92.2809 20.0699 92.3517 19.9943 92.4461 19.9383C92.5405 19.8815 92.6538 19.8531 92.7858 19.8531C92.9506 19.8531 93.0855 19.9047 93.1903 20.0079C93.2951 20.1103 93.3475 20.27 93.3475 20.4868V21.7207H93.0643V20.4868C93.0643 20.3508 93.0271 20.2536 92.9526 20.1951C92.8782 20.1367 92.7906 20.1075 92.6898 20.1075C92.5601 20.1075 92.4597 20.1467 92.3885 20.2251C92.3173 20.3028 92.2817 20.4012 92.2817 20.5204V21.7207H91.9936V20.458C91.9936 20.3532 91.9596 20.2688 91.8916 20.2047C91.8236 20.1399 91.7359 20.1075 91.6287 20.1075C91.5551 20.1075 91.4863 20.1271 91.4223 20.1663C91.3591 20.2055 91.3078 20.26 91.2686 20.3296C91.2302 20.3984 91.211 20.478 91.211 20.5684V21.7207H90.9278Z" fill="#1E1E1E"/>
<path d="M50.7259 26.8254C50.7259 26.7043 50.7554 26.5939 50.8145 26.4941C50.8736 26.3944 50.953 26.315 51.0527 26.2559C51.1525 26.1968 51.2629 26.1673 51.384 26.1673C51.4889 26.1673 51.5857 26.1898 51.6743 26.2349C51.7637 26.2799 51.8375 26.3416 51.8959 26.4199C51.9543 26.4975 51.9904 26.5854 52.0045 26.6836H51.7364C51.7216 26.6075 51.6806 26.5455 51.6134 26.4975C51.5462 26.4487 51.4697 26.4243 51.384 26.4243C51.3102 26.4243 51.2429 26.4424 51.1824 26.4786C51.1218 26.5148 51.0734 26.5632 51.0372 26.6238C51.001 26.6843 50.9829 26.7516 50.9829 26.8254C50.9829 26.8993 51.001 26.9665 51.0372 27.0271C51.0734 27.0876 51.1218 27.136 51.1824 27.1722C51.2429 27.2084 51.3102 27.2265 51.384 27.2265C51.4697 27.2265 51.5421 27.2025 51.6012 27.1545C51.661 27.1057 51.6987 27.0433 51.7142 26.9672H51.9823C51.9683 27.0655 51.9339 27.1537 51.8793 27.232C51.8246 27.3096 51.7545 27.3709 51.6688 27.416C51.5838 27.461 51.4889 27.4835 51.384 27.4835C51.2629 27.4835 51.1525 27.454 51.0527 27.3949C50.953 27.3358 50.8736 27.2564 50.8145 27.1567C50.7554 27.057 50.7259 26.9466 50.7259 26.8254ZM51.3729 27.9954C51.2119 27.9954 51.0605 27.9651 50.9187 27.9046C50.7776 27.844 50.6531 27.7602 50.5453 27.6531C50.4382 27.5452 50.354 27.4208 50.2927 27.2797C50.2321 27.1386 50.2022 26.9872 50.2029 26.8254C50.2037 26.6637 50.2343 26.5122 50.2949 26.3712C50.3562 26.2301 50.4404 26.106 50.5475 25.9989C50.6546 25.891 50.7787 25.8068 50.9198 25.7463C51.0609 25.6857 51.2119 25.6554 51.3729 25.6554C51.5347 25.6554 51.6861 25.6857 51.8272 25.7463C51.969 25.8068 52.0931 25.891 52.1995 25.9989C52.3066 26.106 52.3904 26.2301 52.451 26.3712C52.5116 26.5122 52.5422 26.6637 52.5429 26.8254C52.5437 26.9872 52.5138 27.1386 52.4532 27.2797C52.3926 27.4208 52.3088 27.5452 52.2017 27.6531C52.0946 27.7602 51.9701 27.844 51.8283 27.9046C51.6865 27.9651 51.5347 27.9954 51.3729 27.9954ZM51.3729 27.7384C51.4993 27.7384 51.6178 27.7147 51.7286 27.6675C51.8394 27.6202 51.9365 27.5548 52.02 27.4714C52.1035 27.3879 52.1688 27.2911 52.2161 27.1811C52.2634 27.0703 52.2866 26.9521 52.2859 26.8265C52.2852 26.7002 52.2612 26.5817 52.2139 26.4709C52.1666 26.3601 52.1012 26.2629 52.0178 26.1795C51.9343 26.096 51.8375 26.0306 51.7275 25.9834C51.6174 25.9361 51.4993 25.9125 51.3729 25.9125C51.2474 25.9125 51.1296 25.9361 51.0195 25.9834C50.9095 26.0306 50.8127 26.0964 50.7292 26.1806C50.6458 26.2641 50.58 26.3612 50.532 26.472C50.4847 26.582 50.4607 26.7002 50.46 26.8265C50.4593 26.9514 50.4825 27.0692 50.5298 27.18C50.5771 27.29 50.6424 27.3868 50.7259 27.4702C50.8101 27.5537 50.9072 27.6194 51.0173 27.6675C51.1281 27.7147 51.2466 27.7384 51.3729 27.7384ZM53.9132 27.96V27.7605L54.6622 26.9406C54.7501 26.8446 54.8225 26.7612 54.8793 26.6902C54.9362 26.6186 54.9783 26.5514 55.0057 26.4886C55.0337 26.4251 55.0478 26.3586 55.0478 26.2892C55.0478 26.2094 55.0285 26.1403 54.9901 26.082C54.9525 26.0236 54.9008 25.9786 54.835 25.9468C54.7693 25.915 54.6954 25.8992 54.6134 25.8992C54.5263 25.8992 54.4502 25.9173 54.3852 25.9535C54.3209 25.9889 54.2711 26.0388 54.2356 26.103C54.2009 26.1673 54.1835 26.2426 54.1835 26.3291H53.9221C53.9221 26.1961 53.9527 26.0794 54.014 25.9789C54.0753 25.8785 54.1588 25.8002 54.2644 25.7441C54.3708 25.6879 54.4901 25.6598 54.6223 25.6598C54.7553 25.6598 54.8731 25.6879 54.9757 25.7441C55.0784 25.8002 55.1589 25.8759 55.2173 25.9712C55.2756 26.0665 55.3048 26.1725 55.3048 26.2892C55.3048 26.3726 55.2897 26.4543 55.2594 26.534C55.2298 26.6131 55.1781 26.7013 55.1043 26.7988C55.0311 26.8956 54.9296 27.0138 54.7996 27.1534L54.2899 27.6985V27.7162H55.3447V27.96H53.9132ZM56.5424 27.991C56.3755 27.991 56.2333 27.9456 56.1158 27.8547C55.9984 27.7631 55.9086 27.6305 55.8466 27.4569C55.7845 27.2826 55.7535 27.0721 55.7535 26.8254C55.7535 26.5802 55.7845 26.3708 55.8466 26.1972C55.9094 26.0229 55.9995 25.8899 56.1169 25.7983C56.2351 25.706 56.3769 25.6598 56.5424 25.6598C56.7078 25.6598 56.8493 25.706 56.9667 25.7983C57.0849 25.8899 57.175 26.0229 57.2371 26.1972C57.2999 26.3708 57.3312 26.5802 57.3312 26.8254C57.3312 27.0721 57.3002 27.2826 57.2382 27.4569C57.1761 27.6305 57.0864 27.7631 56.9689 27.8547C56.8515 27.9456 56.7093 27.991 56.5424 27.991ZM56.5424 27.7472C56.7078 27.7472 56.8364 27.6675 56.928 27.5079C57.0195 27.3484 57.0653 27.1209 57.0653 26.8254C57.0653 26.6289 57.0443 26.4616 57.0022 26.3235C56.9608 26.1854 56.901 26.0801 56.8227 26.0077C56.7451 25.9354 56.6517 25.8992 56.5424 25.8992C56.3784 25.8992 56.2503 25.98 56.1579 26.1418C56.0656 26.3028 56.0194 26.5307 56.0194 26.8254C56.0194 27.0219 56.0401 27.1888 56.0815 27.3262C56.1228 27.4636 56.1823 27.5681 56.2599 27.6398C56.3382 27.7114 56.4323 27.7472 56.5424 27.7472ZM57.7523 27.96V27.7605L58.5012 26.9406C58.5891 26.8446 58.6615 26.7612 58.7184 26.6902C58.7753 26.6186 58.8174 26.5514 58.8447 26.4886C58.8728 26.4251 58.8868 26.3586 58.8868 26.2892C58.8868 26.2094 58.8676 26.1403 58.8292 26.082C58.7915 26.0236 58.7398 25.9786 58.6741 25.9468C58.6083 25.915 58.5345 25.8992 58.4525 25.8992C58.3653 25.8992 58.2893 25.9173 58.2243 25.9535C58.16 25.9889 58.1101 26.0388 58.0747 26.103C58.04 26.1673 58.0226 26.2426 58.0226 26.3291H57.7611C57.7611 26.1961 57.7918 26.0794 57.8531 25.9789C57.9144 25.8785 57.9979 25.8002 58.1035 25.7441C58.2099 25.6879 58.3291 25.6598 58.4614 25.6598C58.5943 25.6598 58.7121 25.6879 58.8148 25.7441C58.9175 25.8002 58.998 25.8759 59.0563 25.9712C59.1147 26.0665 59.1439 26.1725 59.1439 26.2892C59.1439 26.3726 59.1287 26.4543 59.0984 26.534C59.0689 26.6131 59.0172 26.7013 58.9433 26.7988C58.8702 26.8956 58.7686 27.0138 58.6386 27.1534L58.129 27.6985V27.7162H59.1837V27.96H57.7523ZM60.408 27.991C60.2618 27.991 60.1314 27.9659 60.0169 27.9156C59.9032 27.8654 59.8127 27.7956 59.7455 27.7062C59.679 27.6161 59.6428 27.5116 59.6369 27.3927H59.9161C59.922 27.4658 59.9471 27.529 59.9914 27.5821C60.0358 27.6346 60.0937 27.6752 60.1654 27.704C60.237 27.7328 60.3164 27.7472 60.4036 27.7472C60.5011 27.7472 60.5875 27.7302 60.6629 27.6963C60.7382 27.6623 60.7973 27.615 60.8401 27.5544C60.883 27.4939 60.9044 27.4237 60.9044 27.3439C60.9044 27.2605 60.8837 27.187 60.8424 27.1235C60.801 27.0592 60.7404 27.009 60.6607 26.9728C60.5809 26.9366 60.4834 26.9185 60.3682 26.9185H60.1864V26.6747H60.3682C60.4583 26.6747 60.5373 26.6585 60.6053 26.626C60.6739 26.5935 60.7275 26.5477 60.7659 26.4886C60.8051 26.4295 60.8246 26.3601 60.8246 26.2803C60.8246 26.2035 60.8076 26.1366 60.7737 26.0798C60.7397 26.0229 60.6917 25.9786 60.6296 25.9468C60.5683 25.915 60.4959 25.8992 60.4125 25.8992C60.3342 25.8992 60.2603 25.9136 60.1909 25.9424C60.1222 25.9704 60.066 26.0114 60.0225 26.0654C59.9789 26.1185 59.9553 26.1828 59.9516 26.2581H59.6857C59.6901 26.1392 59.7259 26.0351 59.7931 25.9457C59.8603 25.8556 59.9482 25.7854 60.0568 25.7352C60.1661 25.685 60.2862 25.6598 60.4169 25.6598C60.5572 25.6598 60.6776 25.6883 60.7781 25.7452C60.8785 25.8013 60.9557 25.8755 61.0097 25.9679C61.0636 26.0602 61.0905 26.1599 61.0905 26.267C61.0905 26.3948 61.0569 26.5037 60.9897 26.5939C60.9232 26.684 60.8328 26.7464 60.7183 26.7811V26.7988C60.8616 26.8225 60.9735 26.8834 61.054 26.9816C61.1345 27.0791 61.1747 27.1999 61.1747 27.3439C61.1747 27.4673 61.1411 27.5781 61.0739 27.6763C61.0074 27.7738 60.9166 27.8506 60.8014 27.9068C60.6861 27.9629 60.555 27.991 60.408 27.991ZM64.3712 26.4H64.0964C64.0802 26.3209 64.0517 26.2515 64.0111 26.1917C63.9712 26.1318 63.9225 26.0816 63.8649 26.041C63.808 25.9996 63.7448 25.9686 63.6754 25.9479C63.606 25.9272 63.5336 25.9169 63.4582 25.9169C63.3208 25.9169 63.1964 25.9516 63.0849 26.021C62.9741 26.0905 62.8858 26.1928 62.8201 26.3279C62.7551 26.4631 62.7226 26.6289 62.7226 26.8254C62.7226 27.0219 62.7551 27.1877 62.8201 27.3229C62.8858 27.4581 62.9741 27.5604 63.0849 27.6298C63.1964 27.6992 63.3208 27.7339 63.4582 27.7339C63.5336 27.7339 63.606 27.7236 63.6754 27.7029C63.7448 27.6822 63.808 27.6516 63.8649 27.611C63.9225 27.5696 63.9712 27.519 64.0111 27.4592C64.0517 27.3986 64.0802 27.3292 64.0964 27.2509H64.3712C64.3505 27.3668 64.3128 27.4706 64.2582 27.5622C64.2035 27.6538 64.1356 27.7317 64.0543 27.796C63.9731 27.8595 63.8818 27.9079 63.7807 27.9411C63.6802 27.9744 63.5727 27.991 63.4582 27.991C63.2647 27.991 63.0926 27.9437 62.9419 27.8492C62.7912 27.7546 62.6727 27.6202 62.5863 27.4459C62.4999 27.2716 62.4566 27.0647 62.4566 26.8254C62.4566 26.5861 62.4999 26.3793 62.5863 26.205C62.6727 26.0306 62.7912 25.8962 62.9419 25.8017C63.0926 25.7071 63.2647 25.6598 63.4582 25.6598C63.5727 25.6598 63.6802 25.6765 63.7807 25.7097C63.8818 25.7429 63.9731 25.7917 64.0543 25.856C64.1356 25.9195 64.2035 25.997 64.2582 26.0886C64.3128 26.1795 64.3505 26.2833 64.3712 26.4ZM66.3663 26.4C66.342 26.3254 66.3098 26.2585 66.2699 26.1994C66.2308 26.1396 66.1839 26.0886 66.1292 26.0465C66.0753 26.0044 66.014 25.9723 65.9453 25.9501C65.8766 25.928 65.8013 25.9169 65.7193 25.9169C65.5849 25.9169 65.4626 25.9516 65.3526 26.021C65.2425 26.0905 65.155 26.1928 65.09 26.3279C65.025 26.4631 64.9925 26.6289 64.9925 26.8254C64.9925 27.0219 65.0253 27.1877 65.0911 27.3229C65.1568 27.4581 65.2458 27.5604 65.3581 27.6298C65.4704 27.6992 65.5967 27.7339 65.737 27.7339C65.867 27.7339 65.9815 27.7062 66.0805 27.6508C66.1802 27.5947 66.2578 27.5157 66.3132 27.4137C66.3693 27.3111 66.3974 27.1903 66.3974 27.0514L66.4816 27.0692H65.7991V26.8254H66.6633V27.0692C66.6633 27.256 66.6234 27.4185 66.5436 27.5567C66.4646 27.6948 66.3553 27.8019 66.2157 27.878C66.0768 27.9533 65.9172 27.991 65.737 27.991C65.5361 27.991 65.3596 27.9437 65.2074 27.8492C65.056 27.7546 64.9378 27.6202 64.8529 27.4459C64.7687 27.2716 64.7266 27.0647 64.7266 26.8254C64.7266 26.6459 64.7506 26.4845 64.7986 26.3412C64.8473 26.1972 64.916 26.0746 65.0047 25.9734C65.0933 25.8722 65.1982 25.7946 65.3193 25.7407C65.4405 25.6868 65.5738 25.6598 65.7193 25.6598C65.839 25.6598 65.9505 25.6779 66.0539 25.7141C66.158 25.7496 66.2507 25.8002 66.332 25.8659C66.414 25.9309 66.4823 26.0089 66.537 26.0997C66.5916 26.1898 66.6293 26.2899 66.65 26.4H66.3663ZM68.2861 25.6909V27.96H68.0114V25.6909H68.2861ZM69.0631 26.9362V27.96H68.8016V26.2581H69.0542V26.5241H69.0764C69.1163 26.4376 69.1769 26.3682 69.2581 26.3158C69.3394 26.2626 69.4442 26.236 69.5728 26.236C69.688 26.236 69.7888 26.2596 69.8752 26.3069C69.9617 26.3534 70.0289 26.4243 70.0769 26.5196C70.1249 26.6142 70.1489 26.7338 70.1489 26.8786V27.96H69.8874V26.8963C69.8874 26.7626 69.8527 26.6585 69.7833 26.5839C69.7138 26.5085 69.6186 26.4709 69.4974 26.4709C69.414 26.4709 69.3394 26.489 69.2736 26.5252C69.2086 26.5614 69.1573 26.6142 69.1196 26.6836C69.0819 26.753 69.0631 26.8372 69.0631 26.9362ZM71.3845 26.2581V26.4797H70.4672V26.2581H71.3845ZM70.7419 27.96V26.0233C70.7419 25.9258 70.7648 25.8445 70.8106 25.7795C70.8564 25.7145 70.9159 25.6658 70.989 25.6333C71.0621 25.6008 71.1393 25.5845 71.2206 25.5845C71.2848 25.5845 71.3373 25.5897 71.3779 25.6C71.4185 25.6104 71.4488 25.62 71.4687 25.6288L71.3934 25.8548C71.3801 25.8504 71.3616 25.8449 71.338 25.8382C71.3151 25.8316 71.2848 25.8283 71.2472 25.8283C71.1607 25.8283 71.0983 25.85 71.0599 25.8936C71.0222 25.9372 71.0034 26.0011 71.0034 26.0853V27.96H70.7419ZM71.751 27.96V26.2581H72.0125V27.96H71.751ZM71.884 25.9745C71.833 25.9745 71.789 25.9571 71.7521 25.9224C71.7159 25.8877 71.6978 25.846 71.6978 25.7972C71.6978 25.7485 71.7159 25.7068 71.7521 25.672C71.789 25.6373 71.833 25.62 71.884 25.62C71.9349 25.62 71.9785 25.6373 72.0147 25.672C72.0516 25.7068 72.0701 25.7485 72.0701 25.7972C72.0701 25.846 72.0516 25.8877 72.0147 25.9224C71.9785 25.9571 71.9349 25.9745 71.884 25.9745ZM72.7529 26.9362V27.96H72.4914V26.2581H72.744V26.5241H72.7662C72.806 26.4376 72.8666 26.3682 72.9479 26.3158C73.0291 26.2626 73.134 26.236 73.2625 26.236C73.3778 26.236 73.4786 26.2596 73.565 26.3069C73.6514 26.3534 73.7186 26.4243 73.7666 26.5196C73.8147 26.6142 73.8387 26.7338 73.8387 26.8786V27.96H73.5772V26.8963C73.5772 26.7626 73.5425 26.6585 73.473 26.5839C73.4036 26.5085 73.3083 26.4709 73.1872 26.4709C73.1037 26.4709 73.0291 26.489 72.9634 26.5252C72.8984 26.5614 72.847 26.6142 72.8094 26.6836C72.7717 26.753 72.7529 26.8372 72.7529 26.9362ZM74.3165 27.96V26.2581H74.5779V27.96H74.3165ZM74.4494 25.9745C74.3985 25.9745 74.3545 25.9571 74.3176 25.9224C74.2814 25.8877 74.2633 25.846 74.2633 25.7972C74.2633 25.7485 74.2814 25.7068 74.3176 25.672C74.3545 25.6373 74.3985 25.62 74.4494 25.62C74.5004 25.62 74.544 25.6373 74.5802 25.672C74.6171 25.7068 74.6356 25.7485 74.6356 25.7972C74.6356 25.846 74.6171 25.8877 74.5802 25.9224C74.544 25.9571 74.5004 25.9745 74.4494 25.9745ZM75.797 26.2581V26.4797H74.915V26.2581H75.797ZM75.1721 25.8504H75.4336V27.4725C75.4336 27.5463 75.4443 27.6017 75.4657 27.6387C75.4879 27.6748 75.5159 27.6992 75.5499 27.7118C75.5846 27.7236 75.6212 27.7295 75.6596 27.7295C75.6884 27.7295 75.712 27.728 75.7305 27.7251C75.749 27.7214 75.7637 27.7184 75.7748 27.7162L75.828 27.9511C75.8103 27.9577 75.7855 27.9644 75.7538 27.971C75.722 27.9784 75.6817 27.9821 75.633 27.9821C75.5591 27.9821 75.4867 27.9662 75.4158 27.9345C75.3457 27.9027 75.2873 27.8543 75.2408 27.7893C75.195 27.7243 75.1721 27.6423 75.1721 27.5434V25.8504ZM76.3587 28.5981C76.3144 28.5981 76.2749 28.5944 76.2402 28.5871C76.2054 28.5804 76.1814 28.5738 76.1681 28.5671L76.2346 28.3367C76.2981 28.3529 76.3543 28.3588 76.403 28.3544C76.4518 28.35 76.495 28.3282 76.5327 28.289C76.5711 28.2506 76.6061 28.1882 76.6379 28.1018L76.6867 27.9688L76.0573 26.2581H76.341L76.8108 27.6143H76.8285L77.2983 26.2581H77.5819L76.8595 28.2081C76.827 28.296 76.7867 28.3688 76.7387 28.4264C76.6907 28.4848 76.635 28.528 76.5714 28.556C76.5086 28.5841 76.4377 28.5981 76.3587 28.5981ZM78.0109 27.9777C77.9563 27.9777 77.9094 27.9581 77.8702 27.919C77.8311 27.8798 77.8115 27.8329 77.8115 27.7783C77.8115 27.7236 77.8311 27.6767 77.8702 27.6375C77.9094 27.5984 77.9563 27.5788 78.0109 27.5788C78.0656 27.5788 78.1125 27.5984 78.1517 27.6375C78.1908 27.6767 78.2104 27.7236 78.2104 27.7783C78.2104 27.8144 78.2011 27.8477 78.1827 27.878C78.1649 27.9083 78.1409 27.9326 78.1107 27.9511C78.0811 27.9688 78.0479 27.9777 78.0109 27.9777ZM79.6856 27.96H79.3975L80.2307 25.6909H80.5144L81.3475 27.96H81.0595L80.3814 26.0498H80.3637L79.6856 27.96ZM79.792 27.0736H80.9531V27.3173H79.792V27.0736ZM81.927 25.6909V27.96H81.6655V25.6909H81.927ZM82.6674 25.6909V27.96H82.4059V25.6909H82.6674ZM84.0238 27.96V26.2581H84.2764V26.5152H84.2942C84.3252 26.431 84.3813 26.3627 84.4626 26.3102C84.5438 26.2578 84.6354 26.2316 84.7373 26.2316C84.7565 26.2316 84.7805 26.2319 84.8094 26.2327C84.8382 26.2334 84.8599 26.2345 84.8747 26.236V26.5019C84.8659 26.4997 84.8455 26.4964 84.8138 26.4919C84.7828 26.4868 84.7499 26.4842 84.7152 26.4842C84.6324 26.4842 84.5586 26.5015 84.4936 26.5362C84.4293 26.5702 84.3784 26.6175 84.3407 26.6781C84.3038 26.7379 84.2853 26.8062 84.2853 26.883V27.96H84.0238ZM85.1847 27.96V26.2581H85.4461V27.96H85.1847ZM85.3176 25.9745C85.2667 25.9745 85.2227 25.9571 85.1858 25.9224C85.1496 25.8877 85.1315 25.846 85.1315 25.7972C85.1315 25.7485 85.1496 25.7068 85.1858 25.672C85.2227 25.6373 85.2667 25.62 85.3176 25.62C85.3686 25.62 85.4122 25.6373 85.4484 25.672C85.4853 25.7068 85.5038 25.7485 85.5038 25.7972C85.5038 25.846 85.4853 25.8877 85.4484 25.9224C85.4122 25.9571 85.3686 25.9745 85.3176 25.9745ZM86.612 28.6336C86.4857 28.6336 86.3771 28.6173 86.2863 28.5848C86.1954 28.5531 86.1197 28.511 86.0591 28.4585C85.9993 28.4068 85.9517 28.3514 85.9162 28.2923L86.1245 28.1461C86.1481 28.1771 86.178 28.2126 86.2142 28.2525C86.2504 28.2931 86.2999 28.3282 86.3627 28.3577C86.4262 28.388 86.5093 28.4031 86.612 28.4031C86.7494 28.4031 86.8628 28.3699 86.9521 28.3034C87.0415 28.2369 87.0862 28.1328 87.0862 27.991V27.6453H87.064C87.0448 27.6763 87.0175 27.7147 86.982 27.7605C86.9473 27.8056 86.8971 27.8458 86.8314 27.8813C86.7664 27.916 86.6785 27.9334 86.5677 27.9334C86.4303 27.9334 86.3069 27.9009 86.1976 27.8359C86.089 27.7709 86.003 27.6763 85.9395 27.5522C85.8767 27.4281 85.8453 27.2775 85.8453 27.1002C85.8453 26.9259 85.8759 26.7741 85.9372 26.6448C85.9986 26.5148 86.0839 26.4144 86.1932 26.3435C86.3025 26.2718 86.4288 26.236 86.5721 26.236C86.6829 26.236 86.7708 26.2544 86.8358 26.2914C86.9015 26.3276 86.9518 26.3689 86.9865 26.4155C87.0219 26.4613 87.0493 26.4989 87.0685 26.5285H87.0951V26.2581H87.3477V28.0087C87.3477 28.155 87.3144 28.2739 87.248 28.3655C87.1822 28.4578 87.0936 28.5254 86.982 28.5682C86.8713 28.6118 86.7479 28.6336 86.612 28.6336ZM86.6031 27.6985C86.708 27.6985 86.7967 27.6745 86.869 27.6265C86.9414 27.5785 86.9965 27.5094 87.0341 27.4193C87.0718 27.3292 87.0906 27.2213 87.0906 27.0958C87.0906 26.9731 87.0722 26.8649 87.0352 26.7711C86.9983 26.6773 86.9436 26.6038 86.8713 26.5506C86.7989 26.4975 86.7095 26.4709 86.6031 26.4709C86.4923 26.4709 86.4 26.4989 86.3261 26.5551C86.253 26.6112 86.198 26.6866 86.1611 26.7811C86.1249 26.8756 86.1068 26.9805 86.1068 27.0958C86.1068 27.2139 86.1252 27.3185 86.1622 27.4093C86.1998 27.4994 86.2552 27.5703 86.3284 27.622C86.4022 27.673 86.4938 27.6985 86.6031 27.6985ZM88.0878 26.9362V27.96H87.8263V25.6909H88.0878V26.5241H88.1099C88.1498 26.4362 88.2097 26.3664 88.2894 26.3146C88.3699 26.2622 88.477 26.236 88.6107 26.236C88.7267 26.236 88.8283 26.2593 88.9154 26.3058C89.0026 26.3516 89.0702 26.4221 89.1182 26.5174C89.1669 26.6119 89.1913 26.7323 89.1913 26.8786V27.96H88.9298V26.8963C88.9298 26.7612 88.8947 26.6566 88.8246 26.5828C88.7551 26.5082 88.6588 26.4709 88.5354 26.4709C88.4497 26.4709 88.3729 26.489 88.3049 26.5252C88.2377 26.5614 88.1845 26.6142 88.1454 26.6836C88.107 26.753 88.0878 26.8372 88.0878 26.9362ZM90.4098 26.2581V26.4797H89.5279V26.2581H90.4098ZM89.7849 25.8504H90.0464V27.4725C90.0464 27.5463 90.0571 27.6017 90.0785 27.6387C90.1007 27.6748 90.1287 27.6992 90.1627 27.7118C90.1974 27.7236 90.234 27.7295 90.2724 27.7295C90.3012 27.7295 90.3248 27.728 90.3433 27.7251C90.3618 27.7214 90.3765 27.7184 90.3876 27.7162L90.4408 27.9511C90.4231 27.9577 90.3983 27.9644 90.3666 27.971C90.3348 27.9784 90.2946 27.9821 90.2458 27.9821C90.1719 27.9821 90.0996 27.9662 90.0286 27.9345C89.9585 27.9027 89.9001 27.8543 89.8536 27.7893C89.8078 27.7243 89.7849 27.6423 89.7849 27.5434V25.8504ZM91.9781 26.6393L91.7432 26.7058C91.7284 26.6666 91.7066 26.6286 91.6778 26.5916C91.6498 26.554 91.6114 26.5229 91.5626 26.4986C91.5139 26.4742 91.4514 26.462 91.3754 26.462C91.2712 26.462 91.1844 26.486 91.115 26.534C91.0463 26.5813 91.012 26.6415 91.012 26.7146C91.012 26.7796 91.0356 26.831 91.0829 26.8686C91.1301 26.9063 91.204 26.9377 91.3045 26.9628L91.5571 27.0248C91.7092 27.0618 91.8226 27.1183 91.8972 27.1944C91.9718 27.2697 92.0091 27.3668 92.0091 27.4858C92.0091 27.5833 91.981 27.6704 91.9249 27.7472C91.8695 27.8241 91.792 27.8846 91.6922 27.9289C91.5925 27.9733 91.4766 27.9954 91.3443 27.9954C91.1708 27.9954 91.0271 27.9577 90.9133 27.8824C90.7996 27.8071 90.7276 27.697 90.6973 27.5522L90.9455 27.4902C90.9691 27.5818 91.0138 27.6505 91.0795 27.6963C91.146 27.7421 91.2328 27.765 91.3399 27.765C91.4618 27.765 91.5585 27.7391 91.6302 27.6874C91.7026 27.635 91.7388 27.5722 91.7388 27.4991C91.7388 27.44 91.7181 27.3905 91.6767 27.3506C91.6354 27.31 91.5718 27.2797 91.4862 27.2597L91.2025 27.1933C91.0467 27.1563 90.9322 27.0991 90.8591 27.0215C90.7867 26.9432 90.7505 26.8454 90.7505 26.7279C90.7505 26.6319 90.7774 26.5469 90.8314 26.4731C90.886 26.3992 90.9603 26.3412 91.0541 26.2991C91.1486 26.257 91.2557 26.236 91.3754 26.236C91.5438 26.236 91.676 26.2729 91.772 26.3468C91.8688 26.4206 91.9375 26.5181 91.9781 26.6393ZM93.2802 27.96V26.2581H93.5328V26.5152H93.5506C93.5816 26.431 93.6377 26.3627 93.719 26.3102C93.8002 26.2578 93.8918 26.2316 93.9937 26.2316C94.0129 26.2316 94.0369 26.2319 94.0658 26.2327C94.0946 26.2334 94.1164 26.2345 94.1311 26.236V26.5019C94.1223 26.4997 94.1019 26.4964 94.0702 26.4919C94.0392 26.4868 94.0063 26.4842 93.9716 26.4842C93.8889 26.4842 93.815 26.5015 93.75 26.5362C93.6857 26.5702 93.6348 26.6175 93.5971 26.6781C93.5602 26.7379 93.5417 26.8062 93.5417 26.883V27.96H93.2802ZM95.1028 27.9954C94.9388 27.9954 94.7974 27.9592 94.6785 27.8868C94.5603 27.8137 94.4691 27.7118 94.4048 27.581C94.3413 27.4496 94.3095 27.2967 94.3095 27.1223C94.3095 26.948 94.3413 26.7944 94.4048 26.6614C94.4691 26.5277 94.5584 26.4236 94.6729 26.349C94.7881 26.2737 94.9226 26.236 95.0762 26.236C95.1648 26.236 95.2524 26.2508 95.3388 26.2803C95.4252 26.3098 95.5039 26.3579 95.5748 26.4243C95.6457 26.4901 95.7022 26.5772 95.7443 26.6858C95.7864 26.7944 95.8075 26.9281 95.8075 27.0869V27.1977H94.4956V26.9717H95.5416C95.5416 26.8756 95.5223 26.79 95.4839 26.7146C95.4463 26.6393 95.3923 26.5798 95.3222 26.5362C95.2527 26.4927 95.1708 26.4709 95.0762 26.4709C94.9721 26.4709 94.8819 26.4967 94.8059 26.5484C94.7305 26.5994 94.6725 26.6659 94.6319 26.7479C94.5913 26.8298 94.571 26.9177 94.571 27.0116V27.1622C94.571 27.2908 94.5931 27.3997 94.6375 27.4891C94.6825 27.5777 94.7449 27.6453 94.8247 27.6918C94.9045 27.7376 94.9972 27.7605 95.1028 27.7605C95.1715 27.7605 95.2335 27.7509 95.2889 27.7317C95.3451 27.7118 95.3935 27.6822 95.4341 27.6431C95.4747 27.6032 95.5061 27.5537 95.5283 27.4946L95.7809 27.5655C95.7543 27.6512 95.7096 27.7266 95.6468 27.7916C95.584 27.8558 95.5065 27.906 95.4141 27.9422C95.3218 27.9777 95.218 27.9954 95.1028 27.9954ZM97.4107 26.6393L97.1758 26.7058C97.161 26.6666 97.1392 26.6286 97.1104 26.5916C97.0823 26.554 97.0439 26.5229 96.9952 26.4986C96.9464 26.4742 96.884 26.462 96.8079 26.462C96.7038 26.462 96.617 26.486 96.5476 26.534C96.4789 26.5813 96.4445 26.6415 96.4445 26.7146C96.4445 26.7796 96.4682 26.831 96.5154 26.8686C96.5627 26.9063 96.6366 26.9377 96.737 26.9628L96.9896 27.0248C97.1418 27.0618 97.2552 27.1183 97.3298 27.1944C97.4044 27.2697 97.4417 27.3668 97.4417 27.4858C97.4417 27.5833 97.4136 27.6704 97.3575 27.7472C97.3021 27.8241 97.2245 27.8846 97.1248 27.9289C97.0251 27.9733 96.9091 27.9954 96.7769 27.9954C96.6033 27.9954 96.4597 27.9577 96.3459 27.8824C96.2322 27.8071 96.1602 27.697 96.1299 27.5522L96.3781 27.4902C96.4017 27.5818 96.4464 27.6505 96.5121 27.6963C96.5786 27.7421 96.6654 27.765 96.7725 27.765C96.8944 27.765 96.9911 27.7391 97.0628 27.6874C97.1352 27.635 97.1714 27.5722 97.1714 27.4991C97.1714 27.44 97.1507 27.3905 97.1093 27.3506C97.0679 27.31 97.0044 27.2797 96.9187 27.2597L96.6351 27.1933C96.4792 27.1563 96.3648 27.0991 96.2916 27.0215C96.2192 26.9432 96.1831 26.8454 96.1831 26.7279C96.1831 26.6319 96.21 26.5469 96.2639 26.4731C96.3186 26.3992 96.3928 26.3412 96.4866 26.2991C96.5812 26.257 96.6883 26.236 96.8079 26.236C96.9764 26.236 97.1086 26.2729 97.2046 26.3468C97.3014 26.4206 97.37 26.5181 97.4107 26.6393ZM98.5488 27.9954C98.3848 27.9954 98.2434 27.9592 98.1245 27.8868C98.0063 27.8137 97.9151 27.7118 97.8508 27.581C97.7873 27.4496 97.7555 27.2967 97.7555 27.1223C97.7555 26.948 97.7873 26.7944 97.8508 26.6614C97.9151 26.5277 98.0044 26.4236 98.1189 26.349C98.2342 26.2737 98.3686 26.236 98.5222 26.236C98.6109 26.236 98.6984 26.2508 98.7848 26.2803C98.8712 26.3098 98.9499 26.3579 99.0208 26.4243C99.0917 26.4901 99.1482 26.5772 99.1903 26.6858C99.2324 26.7944 99.2535 26.9281 99.2535 27.0869V27.1977H97.9417V26.9717H98.9876C98.9876 26.8756 98.9684 26.79 98.93 26.7146C98.8923 26.6393 98.8384 26.5798 98.7682 26.5362C98.6988 26.4927 98.6168 26.4709 98.5222 26.4709C98.4181 26.4709 98.328 26.4967 98.2519 26.5484C98.1765 26.5994 98.1186 26.6659 98.0779 26.7479C98.0373 26.8298 98.017 26.9177 98.017 27.0116V27.1622C98.017 27.2908 98.0392 27.3997 98.0835 27.4891C98.1285 27.5777 98.1909 27.6453 98.2707 27.6918C98.3505 27.7376 98.4432 27.7605 98.5488 27.7605C98.6175 27.7605 98.6796 27.7509 98.735 27.7317C98.7911 27.7118 98.8395 27.6822 98.8801 27.6431C98.9207 27.6032 98.9521 27.5537 98.9743 27.4946L99.2269 27.5655C99.2003 27.6512 99.1556 27.7266 99.0928 27.7916C99.03 27.8558 98.9525 27.906 98.8602 27.9422C98.7678 27.9777 98.664 27.9954 98.5488 27.9954ZM99.6512 27.96V26.2581H99.9038V26.5152H99.9216C99.9526 26.431 100.009 26.3627 100.09 26.3102C100.171 26.2578 100.263 26.2316 100.365 26.2316C100.384 26.2316 100.408 26.2319 100.437 26.2327C100.466 26.2334 100.487 26.2345 100.502 26.236V26.5019C100.493 26.4997 100.473 26.4964 100.441 26.4919C100.41 26.4868 100.377 26.4842 100.343 26.4842C100.26 26.4842 100.186 26.5015 100.121 26.5362C100.057 26.5702 100.006 26.6175 99.9681 26.6781C99.9312 26.7379 99.9127 26.8062 99.9127 26.883V27.96H99.6512ZM102.255 26.2581L101.626 27.96H101.36L100.731 26.2581H101.015L101.484 27.6143H101.502L101.972 26.2581H102.255ZM103.253 27.9954C103.089 27.9954 102.948 27.9592 102.829 27.8868C102.711 27.8137 102.619 27.7118 102.555 27.581C102.492 27.4496 102.46 27.2967 102.46 27.1223C102.46 26.948 102.492 26.7944 102.555 26.6614C102.619 26.5277 102.709 26.4236 102.823 26.349C102.939 26.2737 103.073 26.236 103.227 26.236C103.315 26.236 103.403 26.2508 103.489 26.2803C103.576 26.3098 103.654 26.3579 103.725 26.4243C103.796 26.4901 103.853 26.5772 103.895 26.6858C103.937 26.7944 103.958 26.9281 103.958 27.0869V27.1977H102.646V26.9717H103.692C103.692 26.8756 103.673 26.79 103.634 26.7146C103.597 26.6393 103.543 26.5798 103.473 26.5362C103.403 26.4927 103.321 26.4709 103.227 26.4709C103.122 26.4709 103.032 26.4967 102.956 26.5484C102.881 26.5994 102.823 26.6659 102.782 26.7479C102.742 26.8298 102.721 26.9177 102.721 27.0116V27.1622C102.721 27.2908 102.744 27.3997 102.788 27.4891C102.833 27.5777 102.895 27.6453 102.975 27.6918C103.055 27.7376 103.148 27.7605 103.253 27.7605C103.322 27.7605 103.384 27.7509 103.439 27.7317C103.495 27.7118 103.544 27.6822 103.584 27.6431C103.625 27.6032 103.656 27.5537 103.679 27.4946L103.931 27.5655C103.905 27.6512 103.86 27.7266 103.797 27.7916C103.734 27.8558 103.657 27.906 103.565 27.9422C103.472 27.9777 103.368 27.9954 103.253 27.9954ZM104.998 27.9954C104.856 27.9954 104.731 27.9596 104.623 27.8879C104.514 27.8156 104.429 27.7136 104.368 27.5821C104.306 27.4499 104.276 27.2937 104.276 27.1135C104.276 26.9347 104.306 26.7796 104.368 26.6481C104.429 26.5167 104.514 26.4151 104.624 26.3435C104.733 26.2718 104.859 26.236 105.003 26.236C105.113 26.236 105.201 26.2544 105.265 26.2914C105.33 26.3276 105.38 26.3689 105.414 26.4155C105.448 26.4613 105.475 26.4989 105.495 26.5285H105.517V25.6909H105.778V27.96H105.526V27.6985H105.495C105.475 27.7295 105.448 27.7687 105.413 27.8159C105.377 27.8625 105.327 27.9042 105.261 27.9411C105.195 27.9773 105.108 27.9954 104.998 27.9954ZM105.034 27.7605C105.139 27.7605 105.227 27.7332 105.3 27.6785C105.372 27.6231 105.427 27.5467 105.465 27.4492C105.502 27.351 105.521 27.2376 105.521 27.1091C105.521 26.982 105.503 26.8708 105.466 26.7756C105.429 26.6795 105.374 26.6049 105.302 26.5518C105.229 26.4978 105.14 26.4709 105.034 26.4709C104.923 26.4709 104.831 26.4993 104.757 26.5562C104.684 26.6123 104.629 26.6888 104.592 26.7855C104.555 26.8816 104.537 26.9894 104.537 27.1091C104.537 27.2302 104.556 27.3402 104.593 27.4392C104.63 27.5375 104.686 27.6158 104.759 27.6741C104.833 27.7317 104.924 27.7605 105.034 27.7605Z" fill="#1E1E1E"/>
<defs>
<linearGradient id="paint0_linear_1928_3723" x1="87.5385" y1="13.3418" x2="93.4216" y2="7.45867" gradientUnits="userSpaceOnUse">
<stop stop-color="#FFD521"/>
<stop offset="0.0551048" stop-color="#FFD020"/>
<stop offset="0.1241" stop-color="#FEC01E"/>
<stop offset="0.2004" stop-color="#FCA71B"/>
<stop offset="0.2821" stop-color="#FA8316"/>
<stop offset="0.3681" stop-color="#F85510"/>
<stop offset="0.4563" stop-color="#F51E09"/>
<stop offset="0.5" stop-color="#F30005"/>
<stop offset="0.5035" stop-color="#F20007"/>
<stop offset="0.5966" stop-color="#E1003B"/>
<stop offset="0.6879" stop-color="#D30067"/>
<stop offset="0.7757" stop-color="#C70088"/>
<stop offset="0.8589" stop-color="#BF00A0"/>
<stop offset="0.9357" stop-color="#BB00AF"/>
<stop offset="1" stop-color="#B900B4"/>
</linearGradient>
<clipPath id="clip0_1928_3723">
<rect x="73.8401" y="6.24023" width="8.32" height="8.32" rx="4.16" fill="white"/>
</clipPath>
</defs>
</svg>
