<svg width="32" height="32" viewBox="0 0 32 32" fill="none" xmlns="http://www.w3.org/2000/svg">
<path d="M14.6801 11.5867C14.4113 11.5867 14.1536 11.6934 13.9635 11.8835C13.7735 12.0735 13.6667 12.3313 13.6667 12.6V27.8667C13.6667 28.4267 14.1201 28.88 14.6801 28.88C14.9334 28.88 15.1467 28.8 15.3201 28.6667L17.8667 26.6L20.0801 31.4267C20.2534 31.7867 20.6134 32 21.0001 32C21.1467 32 21.2934 32 21.4401 31.8933L25.1201 30.1867C25.6267 29.9467 25.8667 29.3333 25.6001 28.84L23.3734 24L26.5867 23.4C26.8001 23.3333 27.0001 23.24 27.1601 23.0533C27.5201 22.6267 27.4667 22 27.0001 21.6133L15.3467 11.8133L15.3334 11.8267C15.1601 11.68 14.9334 11.5867 14.6801 11.5867Z" fill="#28519E"/>
<path d="M20.3333 10.6667V13.3333H27V10.6667H20.3333Z" fill="#FFB81C"/>
<path d="M22.5467 2.57333L18.7733 6.34667L20.6533 8.22667L24.4267 4.45333L22.5467 2.57333Z" fill="#FFB81C"/>
<path d="M16.3333 0H13.6667V6.66667H16.3333V0Z" fill="#FFB81C"/>
<path d="M9.34667 15.7733L5.57333 19.5467L7.45333 21.4267L11.2267 17.6533L9.34667 15.7733Z" fill="#FFB81C"/>
<path d="M7.45333 2.57333L5.57333 4.45333L9.34667 8.22667L11.2267 6.34667L7.45333 2.57333Z" fill="#FFB81C"/>
<path d="M3 13.3333H9.66667V10.6667H3V13.3333Z" fill="#FFB81C"/>
</svg>
