<svg width="56" height="65" viewBox="0 0 56 65" fill="none" xmlns="http://www.w3.org/2000/svg">
<path d="M50.1053 53.1818H17.6842C16.0632 53.1818 14.6754 52.6032 13.5211 51.446C12.3667 50.2888 11.7895 48.8977 11.7895 47.2727V5.90909C11.7895 4.28409 12.3667 2.89299 13.5211 1.7358C14.6754 0.578599 16.0632 0 17.6842 0H38.3158L56 17.7273V47.2727C56 48.8977 55.4228 50.2888 54.2684 51.446C53.114 52.6032 51.7263 53.1818 50.1053 53.1818ZM35.3684 20.6818V5.90909H17.6842V47.2727H50.1053V20.6818H35.3684ZM5.89474 65C4.27368 65 2.88597 64.4214 1.73158 63.2642C0.577193 62.107 0 60.7159 0 59.0909V17.7273H5.89474V59.0909H38.3158V65H5.89474Z" fill="#28519E" fill-opacity="0.1"/>
</svg>
