<svg width="129" height="101" viewBox="0 0 129 101" fill="none" xmlns="http://www.w3.org/2000/svg">
<path fill-rule="evenodd" clip-rule="evenodd" d="M97.5831 101C103.191 93.5976 106.518 84.3723 106.518 74.3698C106.518 49.9923 86.7561 30.2305 62.3786 30.2305C38.0011 30.2305 18.2393 49.9923 18.2393 74.3698C18.2393 84.3723 21.5663 93.5976 27.1742 101H97.5831Z" fill="#E9EFFD"/>
<g filter="url(#filter0_d_2209_1254)">
<path d="M113.017 41.5041L107.585 39.9672C107.467 39.9339 107.344 39.9242 107.223 39.9384C107.102 39.9527 106.984 39.9907 106.878 40.0503C106.771 40.1098 106.677 40.1899 106.602 40.2857C106.526 40.3816 106.47 40.4914 106.437 40.6089L105.8 42.8584L103.474 45.6071C103.368 45.7316 103.297 45.8818 103.268 46.0426C103.238 46.2034 103.252 46.369 103.307 46.5229L105.786 53.4335C105.803 53.4799 105.834 53.5197 105.875 53.5474C105.915 53.575 105.964 53.589 106.013 53.5874C106.062 53.5857 106.11 53.5685 106.148 53.5381C106.187 53.5078 106.215 53.466 106.229 53.4186L107.505 48.9103C107.306 48.7709 107.148 48.582 107.046 48.3624C106.92 48.0923 106.883 47.789 106.942 47.4967C107.001 47.2045 107.152 46.9388 107.373 46.7386C107.593 46.5383 107.872 46.4141 108.169 46.384C108.466 46.354 108.764 46.4197 109.02 46.5716C109.277 46.7235 109.478 46.9535 109.594 47.228C109.71 47.5025 109.736 47.8069 109.666 48.0968C109.597 48.3867 109.436 48.6467 109.208 48.8387C108.98 49.0308 108.697 49.1447 108.399 49.1639L107.124 53.6722C107.11 53.7196 107.112 53.77 107.129 53.8161C107.147 53.8623 107.178 53.9018 107.219 53.929C107.26 53.9562 107.309 53.9696 107.358 53.9674C107.407 53.9652 107.454 53.9475 107.493 53.9167L113.226 49.3293C113.354 49.2274 113.452 49.0937 113.511 48.9418C113.571 48.7898 113.589 48.6249 113.565 48.4636L113.023 44.9001L113.659 42.6527C113.692 42.5352 113.702 42.4123 113.688 42.291C113.673 42.1697 113.635 42.0524 113.576 41.9457C113.516 41.8391 113.436 41.7453 113.34 41.6696C113.245 41.5939 113.135 41.5378 113.017 41.5046L113.017 41.5041ZM112.227 44.2974L106.795 42.7605L107.332 40.8623L112.764 42.3991L112.227 44.2974Z" fill="#5990C0"/>
</g>
<g filter="url(#filter1_d_2209_1254)">
<path d="M53.4974 17.829C53.5724 18.2364 53.15 18.6706 52.5752 18.7764C52.0004 18.8822 51.451 18.6269 51.376 18.2195C51.301 17.8121 51.7235 17.3779 52.2983 17.2721C52.873 17.1663 53.4224 17.4216 53.4974 17.829ZM44.8878 18.1181L47.3261 17.6691L45.6053 15.169L44.8878 18.1181ZM54.4648 11.1707L56.1266 20.1962C56.1755 20.4622 56.1107 20.7378 55.9464 20.9625C55.7821 21.1872 55.5318 21.3425 55.2505 21.3943L43.5829 23.5425C43.3016 23.5943 43.0123 23.5383 42.7788 23.3868C42.5452 23.2354 42.3865 23.0009 42.3375 22.7349L40.6758 13.7094C40.6269 13.4434 40.6917 13.1678 40.856 12.9431C41.0203 12.7184 41.2706 12.5631 41.5519 12.5113L53.2195 10.3631C53.5008 10.3113 53.7901 10.3673 54.0236 10.5188C54.2572 10.6702 54.4159 10.9047 54.4648 11.1707ZM49.938 19.5782L45.821 13.5967C45.7637 13.5134 45.6815 13.4484 45.5845 13.4099C45.4876 13.3714 45.3803 13.3611 45.276 13.3803C45.1717 13.3995 45.0751 13.4474 44.9983 13.5178C44.9214 13.5883 44.8677 13.6784 44.8438 13.7767L43.1271 20.8321C43.0948 20.9647 43.119 21.103 43.1946 21.2166C43.2701 21.3302 43.3907 21.4097 43.5298 21.4377C43.669 21.4657 43.8152 21.4399 43.9365 21.366C44.0577 21.292 44.1439 21.1759 44.1762 21.0433L44.6237 19.2035L47.9595 18.5894L49.0329 20.1492C49.1103 20.2616 49.2322 20.3393 49.3718 20.3652C49.5114 20.3912 49.6573 20.3632 49.7773 20.2875C49.8974 20.2118 49.9817 20.0945 50.0119 19.9615C50.042 19.8285 50.0154 19.6906 49.938 19.5782ZM54.2812 16.1294C54.103 15.1617 53.0061 14.5497 51.8367 14.765C51.3413 14.8527 50.8854 15.0883 50.5362 15.4373C50.438 15.5376 50.3851 15.6699 50.389 15.8052C50.3929 15.9406 50.4533 16.0678 50.557 16.159C50.6607 16.2501 50.7991 16.2978 50.9418 16.2913C51.0845 16.2849 51.2198 16.225 51.318 16.1248C51.5078 15.9384 51.7542 15.8134 52.0213 15.7679C52.5888 15.6634 53.1306 15.911 53.2177 16.3097C52.8599 16.2137 52.4816 16.1999 52.1136 16.2693C50.9442 16.4846 50.1372 17.4471 50.3153 18.4148C50.4935 19.3826 51.5904 19.9945 52.7598 19.7792C53.1521 19.7088 53.5212 19.5459 53.833 19.3056C53.9066 19.3943 54.0099 19.4565 54.1264 19.4823C54.2429 19.508 54.3659 19.4959 54.4759 19.4478C54.5858 19.3997 54.6763 19.3183 54.7331 19.2168C54.7898 19.1152 54.8095 18.9992 54.7889 18.8872L54.2812 16.1294Z" fill="#5990C0"/>
</g>
<g filter="url(#filter2_d_2209_1254)">
<path d="M21.2413 25.2536L13.4733 30.6908C13.286 30.8219 13.1597 31.0238 13.1222 31.2521C13.0847 31.4805 13.1391 31.7165 13.2734 31.9084L17.8298 38.4181C17.964 38.61 18.1672 38.7419 18.3946 38.7848C18.622 38.8278 18.8549 38.7782 19.0422 38.6471L26.8103 33.21C26.9976 33.0789 27.1238 32.877 27.1613 32.6486C27.1988 32.4203 27.1445 32.1843 27.0102 31.9924L22.4538 25.4827C22.3195 25.2908 22.1163 25.1589 21.889 25.116C21.6616 25.073 21.4286 25.1226 21.2413 25.2536ZM20.1119 29.2771C20.2167 29.2038 20.3414 29.164 20.4702 29.1626C20.599 29.1612 20.7262 29.1985 20.8356 29.2695C20.9451 29.3406 21.0319 29.4423 21.0852 29.5619C21.1384 29.6814 21.1556 29.8134 21.1346 29.9411C21.1137 30.0688 21.0554 30.1865 20.9674 30.2793C20.8793 30.3722 20.7653 30.436 20.6397 30.4627C20.5142 30.4893 20.3828 30.4777 20.2622 30.4292C20.1416 30.3808 20.0371 30.2976 19.962 30.1903C19.8613 30.0464 19.8205 29.8694 19.8486 29.6982C19.8767 29.5269 19.9715 29.3754 20.1119 29.2771ZM18.5359 37.9238L17.65 36.658L18.2997 32.7009L24.362 33.846L18.5359 37.9238ZM26.304 32.4867L25.3608 33.1469L22.6328 32.6316L22.8827 31.1096L25.7148 31.645L26.304 32.4867Z" fill="#5990C0"/>
</g>
<rect x="34.29" y="28.4077" width="64.9323" height="54.7182" rx="1.45915" fill="#FEFFFF"/>
<path d="M34.29 29.8669C34.29 29.061 34.9433 28.4077 35.7492 28.4077H97.7632C98.569 28.4077 99.2223 29.061 99.2223 29.8669V35.7035H34.29V29.8669Z" fill="#002C3F"/>
<path d="M48.7408 39.7158H39.1721C38.9414 39.7158 38.7202 39.8067 38.557 39.9684C38.3939 40.1301 38.3022 40.3494 38.3022 40.578V48.3381C38.3022 48.5668 38.3939 48.7861 38.557 48.9478C38.7202 49.1095 38.9414 49.2003 39.1721 49.2003H48.7408C48.9715 49.2003 49.1928 49.1095 49.3559 48.9478C49.519 48.7861 49.6107 48.5668 49.6107 48.3381V40.578C49.6107 40.3494 49.519 40.1301 49.3559 39.9684C49.1928 39.8067 48.9715 39.7158 48.7408 39.7158ZM45.4788 42.3025C45.6078 42.3025 45.7339 42.3404 45.8412 42.4115C45.9485 42.4825 46.0321 42.5835 46.0815 42.7017C46.1309 42.8199 46.1438 42.9499 46.1186 43.0753C46.0935 43.2008 46.0313 43.316 45.9401 43.4064C45.8488 43.4969 45.7326 43.5585 45.606 43.5834C45.4795 43.6084 45.3483 43.5956 45.2291 43.5466C45.1099 43.4977 45.008 43.4148 44.9363 43.3084C44.8646 43.2021 44.8263 43.0771 44.8263 42.9492C44.8263 42.7777 44.8951 42.6132 45.0174 42.4919C45.1398 42.3706 45.3057 42.3025 45.4788 42.3025ZM39.1721 48.3381V46.8292L41.9992 44.027L46.3486 48.3381H39.1721ZM48.7408 48.3381H47.579L45.6217 46.3981L46.7091 45.3203L48.7408 47.3347V48.3381Z" fill="#E9EFFD"/>
<path fill-rule="evenodd" clip-rule="evenodd" d="M91.9262 42.9982H54.353V41.5391H91.9262V42.9982Z" fill="#EEF4FB"/>
<path fill-rule="evenodd" clip-rule="evenodd" d="M91.9261 55.0368H38.3022V53.5776H91.9261V55.0368Z" fill="#EEF4FB"/>
<path fill-rule="evenodd" clip-rule="evenodd" d="M91.9262 45.9167H54.353V44.4575H91.9262V45.9167Z" fill="#EEF4FB"/>
<path fill-rule="evenodd" clip-rule="evenodd" d="M91.9261 58.3195H38.3022V56.8604H91.9261V58.3195Z" fill="#EEF4FB"/>
<path fill-rule="evenodd" clip-rule="evenodd" d="M91.9262 49.1999H54.353V47.7407H91.9262V49.1999Z" fill="#EEF4FB"/>
<path fill-rule="evenodd" clip-rule="evenodd" d="M91.9261 61.6022H38.3022V60.1431H91.9261V61.6022Z" fill="#EEF4FB"/>
<rect x="52.1646" y="67.4399" width="25.5352" height="6.56619" fill="#E9EFFD"/>
<path d="M19.1514 78.5643C16.9627 78.4184 10.8221 79.5979 8.02539 80.2059C8.02539 82.2122 8.13483 86.9545 8.57257 89.8728C9.01032 92.7911 10.8221 98.3846 11.6733 100.816C16.6587 100.634 26.9214 100.269 28.0887 100.269C28.2347 92.9735 25.596 81.6651 24.2585 76.9229C23.4681 77.5308 21.3402 78.7102 19.1514 78.5643Z" fill="#1B004D"/>
<path d="M4.37744 74.3699V67.439H8.7549L8.20772 83.3072L4.37744 74.3699Z" fill="#EEC0C2"/>
<path d="M30.2776 74.1877C28.8184 74.0418 25.5353 69.8711 24.0762 67.8039L28.0888 64.7032L29.9128 66.1624C31.1895 63.6697 33.9984 57.6993 35.0198 53.7596C34.2902 52.6652 34.655 48.835 35.0198 48.835C35.3116 48.835 35.5062 50.5373 35.567 51.3885C35.871 50.9629 36.5884 49.8564 37.0262 48.835C39.5067 49.8564 38.0597 53.03 37.0262 54.4892C36.9654 55.158 36.6614 57.5534 35.9318 61.7849C35.0198 66.892 32.1015 74.3701 30.2776 74.1877Z" fill="#EEC0C2"/>
<rect x="4.0127" y="65.98" width="5.83661" height="6.56619" fill="#B6D3FF"/>
<rect x="8.02539" y="65.98" width="1.82394" height="6.56619" fill="#1B004D"/>
<path d="M8.75488 53.2124H12.4028C19.0512 53.2124 24.4408 58.602 24.4408 65.2504V77.6532L23.0504 78.1498C21.4358 78.7264 19.7341 79.0212 18.0197 79.0212C15.8626 79.0212 13.7123 79.2624 11.6088 79.7405L8.75488 80.3891V53.2124Z" fill="#B6D3FF"/>
<circle cx="17.8746" cy="48.4703" r="4.74225" fill="#EBC2C0"/>
<path d="M18.3128 62.8513L22.3142 58.5613L29.4431 64.9798L25.1349 69.4404L18.3128 62.8513Z" fill="#B6D3FF"/>
<path d="M9.15234 47.1107C9.88192 43.3169 12.3746 41.6389 13.5298 41.2741C14.6242 41.0309 16.0833 40.362 18.4544 41.2741L18.495 41.2984C19.6737 42.0056 20.7112 42.9249 21.5551 44.01C22.1023 46.1987 20.4607 49.4818 19.184 51.8529C17.9072 54.224 16.4481 56.5952 18.4544 63.1614C20.4607 69.7275 12.0706 71.9163 9.88188 71.1867C7.69315 70.4571 7.87559 69.1804 3.13334 68.6332C-1.60891 68.086 -0.332148 61.5198 2.76855 58.9663C5.86925 56.4128 4.2277 54.9536 4.4101 52.7649C4.59249 50.5762 8.24037 51.8529 9.15234 47.1107Z" fill="#ED5063"/>
<rect x="4.37744" y="99.5415" width="102.141" height="1.45915" fill="#1B004D"/>
<defs>
<filter id="filter0_d_2209_1254" x="103.252" y="39.8375" width="10.6185" height="14.1303" filterUnits="userSpaceOnUse" color-interpolation-filters="sRGB">
<feFlood flood-opacity="0" result="BackgroundImageFix"/>
<feColorMatrix in="SourceAlpha" type="matrix" values="0 0 0 0 0 0 0 0 0 0 0 0 0 0 0 0 0 0 127 0" result="hardAlpha"/>
<feOffset dx="0.177123" dy="-0.0946303"/>
<feComposite in2="hardAlpha" operator="out"/>
<feColorMatrix type="matrix" values="0 0 0 0 0.863374 0 0 0 0 0.780712 0 0 0 0 0.970833 0 0 0 1 0"/>
<feBlend mode="normal" in2="BackgroundImageFix" result="effect1_dropShadow_2209_1254"/>
<feBlend mode="normal" in="SourceGraphic" in2="effect1_dropShadow_2209_1254" result="shape"/>
</filter>
<filter id="filter1_d_2209_1254" x="40.6597" y="10.2496" width="15.66" height="13.3119" filterUnits="userSpaceOnUse" color-interpolation-filters="sRGB">
<feFlood flood-opacity="0" result="BackgroundImageFix"/>
<feColorMatrix in="SourceAlpha" type="matrix" values="0 0 0 0 0 0 0 0 0 0 0 0 0 0 0 0 0 0 127 0" result="hardAlpha"/>
<feOffset dx="0.177123" dy="-0.0946303"/>
<feComposite in2="hardAlpha" operator="out"/>
<feColorMatrix type="matrix" values="0 0 0 0 0.863374 0 0 0 0 0.780712 0 0 0 0 0.970833 0 0 0 1 0"/>
<feBlend mode="normal" in2="BackgroundImageFix" result="effect1_dropShadow_2209_1254"/>
<feBlend mode="normal" in="SourceGraphic" in2="effect1_dropShadow_2209_1254" result="shape"/>
</filter>
<filter id="filter2_d_2209_1254" x="13.1108" y="25.0064" width="14.2391" height="13.7934" filterUnits="userSpaceOnUse" color-interpolation-filters="sRGB">
<feFlood flood-opacity="0" result="BackgroundImageFix"/>
<feColorMatrix in="SourceAlpha" type="matrix" values="0 0 0 0 0 0 0 0 0 0 0 0 0 0 0 0 0 0 127 0" result="hardAlpha"/>
<feOffset dx="0.177123" dy="-0.0946303"/>
<feComposite in2="hardAlpha" operator="out"/>
<feColorMatrix type="matrix" values="0 0 0 0 0.863374 0 0 0 0 0.780712 0 0 0 0 0.970833 0 0 0 1 0"/>
<feBlend mode="normal" in2="BackgroundImageFix" result="effect1_dropShadow_2209_1254"/>
<feBlend mode="normal" in="SourceGraphic" in2="effect1_dropShadow_2209_1254" result="shape"/>
</filter>
</defs>
</svg>
