<svg width="49" height="48" viewBox="0 0 49 48" fill="none" xmlns="http://www.w3.org/2000/svg">
<circle cx="24.5" cy="24" r="24" fill="#28519E"/>
<path d="M14.5 17.9998V29.9998C14.5 30.265 14.3946 30.5194 14.2071 30.7069C14.0196 30.8945 13.7652 30.9998 13.5 30.9998C13.2348 30.9998 12.9804 30.8945 12.7929 30.7069C12.6054 30.5194 12.5 30.265 12.5 29.9998V17.9998C12.5 17.7346 12.6054 17.4802 12.7929 17.2927C12.9804 17.1052 13.2348 16.9998 13.5 16.9998C13.7652 16.9998 14.0196 17.1052 14.2071 17.2927C14.3946 17.4802 14.5 17.7346 14.5 17.9998ZM38.2075 23.2923L26.2075 11.2923C26.0676 11.1523 25.8894 11.0569 25.6953 11.0183C25.5012 10.9796 25.3 10.9994 25.1172 11.0752C24.9344 11.1509 24.7782 11.2792 24.6683 11.4438C24.5584 11.6084 24.4998 11.8019 24.5 11.9998V16.9998H17.5C17.2348 16.9998 16.9804 17.1052 16.7929 17.2927C16.6054 17.4802 16.5 17.7346 16.5 17.9998V29.9998C16.5 30.265 16.6054 30.5194 16.7929 30.7069C16.9804 30.8945 17.2348 30.9998 17.5 30.9998H24.5V35.9998C24.4998 36.1977 24.5584 36.3912 24.6683 36.5558C24.7782 36.7204 24.9344 36.8487 25.1172 36.9244C25.3 37.0002 25.5012 37.02 25.6953 36.9813C25.8894 36.9427 26.0676 36.8473 26.2075 36.7073L38.2075 24.7073C38.3005 24.6144 38.3742 24.5041 38.4246 24.3828C38.4749 24.2614 38.5008 24.1312 38.5008 23.9998C38.5008 23.8684 38.4749 23.7383 38.4246 23.6169C38.3742 23.4955 38.3005 23.3852 38.2075 23.2923Z" fill="white"/>
</svg>
