<svg width="48" height="48" viewBox="0 0 48 48" fill="none" xmlns="http://www.w3.org/2000/svg">
<circle cx="24" cy="24" r="24" fill="#28519E"/>
<path d="M35.6922 24.7752C35.5076 24.7875 35.3353 24.849 35.2122 24.9844L33.9815 26.2152L36.5045 28.6767L37.7353 27.446C38.0061 27.1875 38.0061 26.7567 37.7353 26.4983L36.2092 24.9844C36.0861 24.849 35.9138 24.7875 35.7415 24.7752M33.2799 26.929L25.8461 34.3875V36.9229H28.3815L35.8399 29.4521M34.4615 14.769H14.7692C14.1163 14.769 13.4902 15.0284 13.0286 15.49C12.567 15.9516 12.3076 16.5777 12.3076 17.2306V31.9998C12.3076 32.6527 12.567 33.2788 13.0286 33.7404C13.4902 34.202 14.1163 34.4613 14.7692 34.4613H23.3845V33.366L33.5261 23.249C34.1045 22.646 34.9045 22.3137 35.7415 22.3137C36.1599 22.3137 36.5784 22.3875 36.9722 22.5475V17.2306C36.9722 15.8521 35.8399 14.769 34.4615 14.769ZM34.4615 19.6921L24.6153 25.846L14.7692 19.6921V17.2306L24.6153 23.3844L34.4615 17.2306" fill="white"/>
</svg>
