<svg width="48" height="49" viewBox="0 0 48 49" fill="none" xmlns="http://www.w3.org/2000/svg">
<path d="M10 44.5C8.33333 44.5 6.91667 43.9167 5.75 42.75C4.58333 41.5833 4 40.1667 4 38.5V10.5C4 8.83333 4.58333 7.41667 5.75 6.25C6.91667 5.08333 8.33333 4.5 10 4.5H38C39.6667 4.5 41.0833 5.08333 42.25 6.25C43.4167 7.41667 44 8.83333 44 10.5V38.5C44 40.1667 43.4167 41.5833 42.25 42.75C41.0833 43.9167 39.6667 44.5 38 44.5H10ZM10 41.5H38C38.8667 41.5 39.5833 41.2083 40.15 40.625C40.7167 40.0417 41 39.3333 41 38.5V10.5C41 9.63333 40.7167 8.91667 40.15 8.35C39.5833 7.78333 38.8667 7.5 38 7.5H10C9.16667 7.5 8.45833 7.78333 7.875 8.35C7.29167 8.91667 7 9.63333 7 10.5V38.5C7 39.3333 7.29167 40.0417 7.875 40.625C8.45833 41.2083 9.16667 41.5 10 41.5Z" fill="#343435"/>
<path d="M20 29.2L13.2 36H34.95L28 27.3L23.65 32.8L20 29.2Z" fill="#343435"/>
<path d="M13.525 18.975C14.2083 19.6583 15.0333 20 16 20C16.9667 20 17.7917 19.6583 18.475 18.975C19.1583 18.2917 19.5 17.4667 19.5 16.5C19.5 15.5333 19.1583 14.7083 18.475 14.025C17.7917 13.3417 16.9667 13 16 13C15.0333 13 14.2083 13.3417 13.525 14.025C12.8417 14.7083 12.5 15.5333 12.5 16.5C12.5 17.4667 12.8417 18.2917 13.525 18.975Z" fill="#343435"/>
</svg>
