<svg width="32" height="32" viewBox="0 0 32 32" fill="none" xmlns="http://www.w3.org/2000/svg">
<path d="M6.66675 29.3333C5.55564 29.3333 4.61119 28.9445 3.83341 28.1667C3.05564 27.3889 2.66675 26.4445 2.66675 25.3333V6.66667C2.66675 5.55556 3.05564 4.61112 3.83341 3.83334C4.61119 3.05556 5.55564 2.66667 6.66675 2.66667H25.3334C26.4445 2.66667 27.389 3.05556 28.1667 3.83334C28.9445 4.61112 29.3334 5.55556 29.3334 6.66667V25.3333C29.3334 26.4445 28.9445 27.3889 28.1667 28.1667C27.389 28.9445 26.4445 29.3333 25.3334 29.3333H6.66675ZM6.66675 27.3333H25.3334C25.9112 27.3333 26.389 27.1389 26.7668 26.75C27.1445 26.3611 27.3334 25.8889 27.3334 25.3333V6.66667C27.3334 6.08889 27.1445 5.61112 26.7668 5.23334C26.389 4.85556 25.9112 4.66667 25.3334 4.66667H6.66675C6.11119 4.66667 5.63897 4.85556 5.25008 5.23334C4.86119 5.61112 4.66675 6.08889 4.66675 6.66667V25.3333C4.66675 25.8889 4.86119 26.3611 5.25008 26.75C5.63897 27.1389 6.11119 27.3333 6.66675 27.3333Z" fill="#28519E"/>
<path d="M13.3333 19.1333L8.79992 23.6667H23.2999L18.6666 17.8667L15.7666 21.5333L13.3333 19.1333Z" fill="#FFB81C"/>
<path d="M9.01659 12.3167C9.47214 12.7722 10.0221 13 10.6666 13C11.311 13 11.861 12.7722 12.3166 12.3167C12.7721 11.8611 12.9999 11.3111 12.9999 10.6667C12.9999 10.0222 12.7721 9.47222 12.3166 9.01666C11.861 8.56111 11.311 8.33333 10.6666 8.33333C10.0221 8.33333 9.47214 8.56111 9.01659 9.01666C8.56103 9.47222 8.33325 10.0222 8.33325 10.6667C8.33325 11.3111 8.56103 11.8611 9.01659 12.3167Z" fill="#FFB81C"/>
</svg>